<svg version="1.1" viewBox="0 0 32 32" xmlns="http://www.w3.org/2000/svg">
 <path d="m7 0c-2.216 0-4 1.784-4 4v24c0 2.216 1.784 4 4 4h18c2.216 0 4-1.784 4-4v-16l-12-12h-10zm13 0 9 9v-9h-9zm-14.312 13.062h20.625c0.38088 0 0.6875 0.30662 0.6875 0.6875s-0.30662 0.6875-0.6875 0.6875h-20.625c-0.38087 0-0.6875-0.30662-0.6875-0.6875s0.30663-0.6875 0.6875-0.6875zm2.75 2.75h15.125c0.38088 0 0.6875 0.30662 0.6875 0.6875s-0.30662 0.6875-0.6875 0.6875h-15.125c-0.38087 0-0.6875-0.30662-0.6875-0.6875s0.30663-0.6875 0.6875-0.6875zm-2.75 5.5a0.6875 0.6875 0 0 1 0.6875 0.6875 0.6875 0.6875 0 0 1-0.6875 0.6875 0.6875 0.6875 0 0 1-0.6875-0.6875 0.6875 0.6875 0 0 1 0.6875-0.6875zm2.75 0h5.5c0.38088 0 0.6875 0.30662 0.6875 0.6875s-0.30662 0.6875-0.6875 0.6875h-5.5c-0.38087 0-0.6875-0.30662-0.6875-0.6875s0.30663-0.6875 0.6875-0.6875zm8.9375 0h8.25c0.76175 0 1.375 0.61325 1.375 1.375v5.5c0 0.76175-0.61325 1.375-1.375 1.375h-8.25c-0.76175 0-1.375-0.61325-1.375-1.375v-5.5c0-0.76175 0.61325-1.375 1.375-1.375zm7.4551 1.3828a0.6875 0.6875 0 0 0-0.37891 0.19336l-2.2637 2.2637-1.375-1.375-3.2363 3.2363a0.6875 0.6875 0 0 0 0 0.97266 0.6875 0.6875 0 0 0 0.97266 0l2.2637-2.2637 1.375 1.375 3.2363-3.2363a0.6875 0.6875 0 0 0 0-0.97266 0.6875 0.6875 0 0 0-0.59375-0.19336zm-19.143 1.3672a0.6875 0.6875 0 0 1 0.6875 0.6875 0.6875 0.6875 0 0 1-0.6875 0.6875 0.6875 0.6875 0 0 1-0.6875-0.6875 0.6875 0.6875 0 0 1 0.6875-0.6875zm2.75 0h5.5c0.38088 0 0.6875 0.30662 0.6875 0.6875s-0.30662 0.6875-0.6875 0.6875h-5.5c-0.38087 0-0.6875-0.30662-0.6875-0.6875s0.30663-0.6875 0.6875-0.6875zm-2.75 2.75a0.6875 0.6875 0 0 1 0.6875 0.6875 0.6875 0.6875 0 0 1-0.6875 0.6875 0.6875 0.6875 0 0 1-0.6875-0.6875 0.6875 0.6875 0 0 1 0.6875-0.6875zm2.75 0h5.5c0.38088 0 0.6875 0.30662 0.6875 0.6875s-0.30662 0.6875-0.6875 0.6875h-5.5c-0.38087 0-0.6875-0.30662-0.6875-0.6875s0.30663-0.6875 0.6875-0.6875z"/>
</svg>
