<svg version="1.1" viewBox="0 0 32 32" xmlns="http://www.w3.org/2000/svg">
 <path d="m7 0c-2.216 0-4 1.784-4 4v24c0 2.216 1.784 4 4 4h18c2.216 0 4-1.784 4-4v-16l-12-12h-10zm13 0 9 9v-9h-9zm-9.5 13.75a5.5 1.375 0 0 1 5.5 1.375v1.375a5.5 1.375 0 0 1-5.5 1.375 5.5 1.375 0 0 1-5.5-1.375v-1.375a5.5 1.375 0 0 1 5.5-1.375zm8.25 2.75h6.875c0.76175 0 1.375 0.61325 1.375 1.375v11c0 0.76175-0.61325 1.375-1.375 1.375h-6.875c-0.76175 0-1.375-0.61325-1.375-1.375v-11c0-0.76175 0.61325-1.375 1.375-1.375zm-13.75 1.375a5.5 1.375 0 0 0 5.5 1.375 5.5 1.375 0 0 0 5.5-1.375v2.75a5.5 1.375 0 0 1-5.5 1.375 5.5 1.375 0 0 1-5.5-1.375v-2.75zm13.75 0v2.75h2.75v-2.75h-2.75zm4.125 0v2.75h2.75v-2.75h-2.75zm-17.875 4.125a5.5 1.375 0 0 0 5.5 1.375 5.5 1.375 0 0 0 5.5-1.375v2.75a5.5 1.375 0 0 1-5.5 1.375 5.5 1.375 0 0 1-5.5-1.375v-2.75zm13.75 0v2.75h2.75v-2.75h-2.75zm4.125 0v2.75h2.75v-2.75h-2.75zm-17.875 4.125a5.5 1.375 0 0 0 5.5 1.375 5.5 1.375 0 0 0 5.5-1.375v2.75a5.5 1.375 0 0 1-5.5 1.375 5.5 1.375 0 0 1-5.5-1.375v-2.75zm13.75 0v2.75h2.75v-2.75h-2.75zm4.125 0v2.75h2.75v-2.75h-2.75z"/>
</svg>
