<svg version="1.1" viewBox="0 0 32 32" xmlns="http://www.w3.org/2000/svg">
 <path d="m7 0c-2.216 0-4 1.784-4 4v24c0 2.216 1.784 4 4 4h18c2.216 0 4-1.784 4-4v-16l-12-12h-10zm13 0 9 9v-9h-9zm-5.1113 13.68h11.424a0.6875 0.6875 0 0 1 0.6875 0.6875 0.6875 0.6875 0 0 1-0.6875 0.6875h-10.576l-5.9238 11.848-3.1738-6.3477h-0.95117a0.6875 0.6875 0 0 1-0.6875-0.6875 0.6875 0.6875 0 0 1 0.6875-0.6875h1.7988l2.3262 4.6504 5.0762-10.15zm9.3613 4.125a1.375 1.375 0 0 1 0.97266 0.40234 1.375 1.375 0 0 1 0 1.9434l-1.7793 1.7793 1.7793 1.7773a1.375 1.375 0 0 1 0 1.9434 1.375 1.375 0 0 1-1.9453 0l-1.7773-1.7773-1.7773 1.7773a1.375 1.375 0 0 1-1.9453 0 1.375 1.375 0 0 1 0-1.9434l1.7793-1.7773-1.7793-1.7793a1.375 1.375 0 0 1 0-1.9434 1.375 1.375 0 0 1 0.82031-0.39453 1.375 1.375 0 0 1 1.125 0.39453l1.7773 1.7773 1.7773-1.7773a1.375 1.375 0 0 1 0.97266-0.40234zm-18.562 11h4.125c0.38088 0 0.6875 0.30662 0.6875 0.6875 0 0.38087-0.30662 0.6875-0.6875 0.6875h-4.125c-0.38087-1e-6 -0.6875-0.30663-0.6875-0.6875 0-0.38088 0.30663-0.6875 0.6875-0.6875zm8.25 0h4.125c0.38088 0 0.6875 0.30662 0.6875 0.6875 0 0.38087-0.30662 0.6875-0.6875 0.6875h-4.125c-0.38088-1e-6 -0.6875-0.30663-0.6875-0.6875 0-0.38088 0.30662-0.6875 0.6875-0.6875zm8.25 0h4.125c0.38088 0 0.6875 0.30662 0.6875 0.6875 0 0.38087-0.30662 0.6875-0.6875 0.6875h-4.125c-0.38088-1e-6 -0.6875-0.30663-0.6875-0.6875 0-0.38088 0.30662-0.6875 0.6875-0.6875z"/>
</svg>
